<svg width="117" height="49" viewBox="0 0 117 49" fill="none" xmlns="http://www.w3.org/2000/svg">
<path d="M22 45C34.1503 45 44 35.1503 44 23C44 10.8497 34.1503 1 22 1C9.84974 1 0 10.8497 0 23C0 35.1503 9.84974 45 22 45Z" fill="white"/>
<path d="M22 23V36Z" fill="white"/>
<path d="M22 23V36" stroke="#3B3D40" stroke-width="9" stroke-linecap="round"/>
<path d="M4 43L7 37L11 40L4 43Z" fill="#232526" stroke="white" stroke-width="4" stroke-linejoin="round"/>
<path d="M22 15.5C24.4853 15.5 26.5 13.4853 26.5 11C26.5 8.51472 24.4853 6.5 22 6.5C19.5147 6.5 17.5 8.51472 17.5 11C17.5 13.4853 19.5147 15.5 22 15.5Z" fill="#232526"/>
<path d="M52.7012 18.7734H49.127L48.3242 21H47.1641L50.4219 12.4688H51.4062L54.6699 21H53.5156L52.7012 18.7734ZM49.4668 17.8477H52.3672L50.9141 13.8574L49.4668 17.8477ZM58.1914 20.2324C58.5781 20.2324 58.916 20.1152 59.2051 19.8809C59.4941 19.6465 59.6543 19.3535 59.6855 19.002H60.7109C60.6914 19.3652 60.5664 19.7109 60.3359 20.0391C60.1055 20.3672 59.7969 20.6289 59.4102 20.8242C59.0273 21.0195 58.6211 21.1172 58.1914 21.1172C57.3281 21.1172 56.6406 20.8301 56.1289 20.2559C55.6211 19.6777 55.3672 18.8887 55.3672 17.8887V17.707C55.3672 17.0898 55.4805 16.541 55.707 16.0605C55.9336 15.5801 56.2578 15.207 56.6797 14.9414C57.1055 14.6758 57.6074 14.543 58.1855 14.543C58.8965 14.543 59.4863 14.7559 59.9551 15.1816C60.4277 15.6074 60.6797 16.1602 60.7109 16.8398H59.6855C59.6543 16.4297 59.498 16.0938 59.2168 15.832C58.9395 15.5664 58.5957 15.4336 58.1855 15.4336C57.6348 15.4336 57.207 15.6328 56.9023 16.0312C56.6016 16.4258 56.4512 16.998 56.4512 17.748V17.9531C56.4512 18.6836 56.6016 19.2461 56.9023 19.6406C57.2031 20.0352 57.6328 20.2324 58.1914 20.2324ZM64.5605 21.1172C63.7012 21.1172 63.002 20.8359 62.4629 20.2734C61.9238 19.707 61.6543 18.9512 61.6543 18.0059V17.8066C61.6543 17.1777 61.7734 16.6172 62.0117 16.125C62.2539 15.6289 62.5898 15.2422 63.0195 14.9648C63.4531 14.6836 63.9219 14.543 64.4258 14.543C65.25 14.543 65.8906 14.8145 66.3477 15.3574C66.8047 15.9004 67.0332 16.6777 67.0332 17.6895V18.1406H62.7383C62.7539 18.7656 62.9355 19.2715 63.2832 19.6582C63.6348 20.041 64.0801 20.2324 64.6191 20.2324C65.002 20.2324 65.3262 20.1543 65.5918 19.998C65.8574 19.8418 66.0898 19.6348 66.2891 19.377L66.9512 19.8926C66.4199 20.709 65.623 21.1172 64.5605 21.1172ZM64.4258 15.4336C63.9883 15.4336 63.6211 15.5938 63.3242 15.9141C63.0273 16.2305 62.8438 16.6758 62.7734 17.25H65.9492V17.168C65.918 16.6172 65.7695 16.1914 65.5039 15.8906C65.2383 15.5859 64.8789 15.4336 64.4258 15.4336ZM71.9844 19.3184C71.9844 19.0254 71.873 18.7988 71.6504 18.6387C71.4316 18.4746 71.0469 18.334 70.4961 18.2168C69.9492 18.0996 69.5137 17.959 69.1895 17.7949C68.8691 17.6309 68.6309 17.4355 68.4746 17.209C68.3223 16.9824 68.2461 16.7129 68.2461 16.4004C68.2461 15.8809 68.4648 15.4414 68.9023 15.082C69.3438 14.7227 69.9062 14.543 70.5898 14.543C71.3086 14.543 71.8906 14.7285 72.3359 15.0996C72.7852 15.4707 73.0098 15.9453 73.0098 16.5234H71.9199C71.9199 16.2266 71.793 15.9707 71.5391 15.7559C71.2891 15.541 70.9727 15.4336 70.5898 15.4336C70.1953 15.4336 69.8867 15.5195 69.6641 15.6914C69.4414 15.8633 69.3301 16.0879 69.3301 16.3652C69.3301 16.627 69.4336 16.8242 69.6406 16.957C69.8477 17.0898 70.2207 17.2168 70.7598 17.3379C71.3027 17.459 71.7422 17.6035 72.0781 17.7715C72.4141 17.9395 72.6621 18.1426 72.8223 18.3809C72.9863 18.6152 73.0684 18.9023 73.0684 19.2422C73.0684 19.8086 72.8418 20.2637 72.3887 20.6074C71.9355 20.9473 71.3477 21.1172 70.625 21.1172C70.1172 21.1172 69.668 21.0273 69.2773 20.8477C68.8867 20.668 68.5801 20.418 68.3574 20.0977C68.1387 19.7734 68.0293 19.4238 68.0293 19.0488H69.1133C69.1328 19.4121 69.2773 19.7012 69.5469 19.916C69.8203 20.127 70.1797 20.2324 70.625 20.2324C71.0352 20.2324 71.3633 20.1504 71.6094 19.9863C71.8594 19.8184 71.9844 19.5957 71.9844 19.3184ZM78.1719 19.3184C78.1719 19.0254 78.0605 18.7988 77.8379 18.6387C77.6191 18.4746 77.2344 18.334 76.6836 18.2168C76.1367 18.0996 75.7012 17.959 75.377 17.7949C75.0566 17.6309 74.8184 17.4355 74.6621 17.209C74.5098 16.9824 74.4336 16.7129 74.4336 16.4004C74.4336 15.8809 74.6523 15.4414 75.0898 15.082C75.5312 14.7227 76.0938 14.543 76.7773 14.543C77.4961 14.543 78.0781 14.7285 78.5234 15.0996C78.9727 15.4707 79.1973 15.9453 79.1973 16.5234H78.1074C78.1074 16.2266 77.9805 15.9707 77.7266 15.7559C77.4766 15.541 77.1602 15.4336 76.7773 15.4336C76.3828 15.4336 76.0742 15.5195 75.8516 15.6914C75.6289 15.8633 75.5176 16.0879 75.5176 16.3652C75.5176 16.627 75.6211 16.8242 75.8281 16.957C76.0352 17.0898 76.4082 17.2168 76.9473 17.3379C77.4902 17.459 77.9297 17.6035 78.2656 17.7715C78.6016 17.9395 78.8496 18.1426 79.0098 18.3809C79.1738 18.6152 79.2559 18.9023 79.2559 19.2422C79.2559 19.8086 79.0293 20.2637 78.5762 20.6074C78.123 20.9473 77.5352 21.1172 76.8125 21.1172C76.3047 21.1172 75.8555 21.0273 75.4648 20.8477C75.0742 20.668 74.7676 20.418 74.5449 20.0977C74.3262 19.7734 74.2168 19.4238 74.2168 19.0488H75.3008C75.3203 19.4121 75.4648 19.7012 75.7344 19.916C76.0078 20.127 76.3672 20.2324 76.8125 20.2324C77.2227 20.2324 77.5508 20.1504 77.7969 19.9863C78.0469 19.8184 78.1719 19.5957 78.1719 19.3184ZM80.3809 17.7715C80.3809 17.1504 80.502 16.5918 80.7441 16.0957C80.9902 15.5996 81.3301 15.2168 81.7637 14.9473C82.2012 14.6777 82.6992 14.543 83.2578 14.543C84.1211 14.543 84.8184 14.8418 85.3496 15.4395C85.8848 16.0371 86.1523 16.832 86.1523 17.8242V17.9004C86.1523 18.5176 86.0332 19.0723 85.7949 19.5645C85.5605 20.0527 85.2227 20.4336 84.7812 20.707C84.3438 20.9805 83.8398 21.1172 83.2695 21.1172C82.4102 21.1172 81.7129 20.8184 81.1777 20.2207C80.6465 19.623 80.3809 18.832 80.3809 17.8477V17.7715ZM81.4707 17.9004C81.4707 18.6035 81.6328 19.168 81.957 19.5938C82.2852 20.0195 82.7227 20.2324 83.2695 20.2324C83.8203 20.2324 84.2578 20.0176 84.582 19.5879C84.9062 19.1543 85.0684 18.5488 85.0684 17.7715C85.0684 17.0762 84.9023 16.5137 84.5703 16.084C84.2422 15.6504 83.8047 15.4336 83.2578 15.4336C82.7227 15.4336 82.291 15.6465 81.9629 16.0723C81.6348 16.498 81.4707 17.1074 81.4707 17.9004ZM94.4023 21C94.3398 20.875 94.2891 20.6523 94.25 20.332C93.7461 20.8555 93.1445 21.1172 92.4453 21.1172C91.8203 21.1172 91.3066 20.9414 90.9043 20.5898C90.5059 20.2344 90.3066 19.7852 90.3066 19.2422C90.3066 18.582 90.5566 18.0703 91.0566 17.707C91.5605 17.3398 92.2676 17.1562 93.1777 17.1562H94.2324V16.6582C94.2324 16.2793 94.1191 15.9785 93.8926 15.7559C93.666 15.5293 93.332 15.416 92.8906 15.416C92.5039 15.416 92.1797 15.5137 91.918 15.709C91.6562 15.9043 91.5254 16.1406 91.5254 16.418H90.4355C90.4355 16.1016 90.5469 15.7969 90.7695 15.5039C90.9961 15.207 91.3008 14.9727 91.6836 14.8008C92.0703 14.6289 92.4941 14.543 92.9551 14.543C93.6855 14.543 94.2578 14.7266 94.6719 15.0938C95.0859 15.457 95.3008 15.959 95.3164 16.5996V19.5176C95.3164 20.0996 95.3906 20.5625 95.5391 20.9062V21H94.4023ZM92.6035 20.1738C92.9434 20.1738 93.2656 20.0859 93.5703 19.9102C93.875 19.7344 94.0957 19.5059 94.2324 19.2246V17.9238H93.3828C92.0547 17.9238 91.3906 18.3125 91.3906 19.0898C91.3906 19.4297 91.5039 19.6953 91.7305 19.8867C91.957 20.0781 92.248 20.1738 92.6035 20.1738ZM93.6934 13.7227H92.7617L91.25 12H92.5566L93.6934 13.7227ZM49.1973 35H48.0723V26.4688H49.1973V35ZM52.1152 28.6602L52.1504 29.457C52.6348 28.8477 53.2676 28.543 54.0488 28.543C55.3887 28.543 56.0645 29.2988 56.0762 30.8105V35H54.9922V30.8047C54.9883 30.3477 54.8828 30.0098 54.6758 29.791C54.4727 29.5723 54.1543 29.4629 53.7207 29.4629C53.3691 29.4629 53.0605 29.5566 52.7949 29.7441C52.5293 29.9316 52.3223 30.1777 52.1738 30.4824V35H51.0898V28.6602H52.1152ZM58.2441 35V29.498H57.2422V28.6602H58.2441V28.0098C58.2441 27.3301 58.4258 26.8047 58.7891 26.4336C59.1523 26.0625 59.666 25.877 60.3301 25.877C60.5801 25.877 60.8281 25.9102 61.0742 25.9766L61.0156 26.8555C60.832 26.8203 60.6367 26.8027 60.4297 26.8027C60.0781 26.8027 59.8066 26.9062 59.6152 27.1133C59.4238 27.3164 59.3281 27.6094 59.3281 27.9922V28.6602H60.6816V29.498H59.3281V35H58.2441ZM61.5957 31.7715C61.5957 31.1504 61.7168 30.5918 61.959 30.0957C62.2051 29.5996 62.5449 29.2168 62.9785 28.9473C63.416 28.6777 63.9141 28.543 64.4727 28.543C65.3359 28.543 66.0332 28.8418 66.5645 29.4395C67.0996 30.0371 67.3672 30.832 67.3672 31.8242V31.9004C67.3672 32.5176 67.248 33.0723 67.0098 33.5645C66.7754 34.0527 66.4375 34.4336 65.9961 34.707C65.5586 34.9805 65.0547 35.1172 64.4844 35.1172C63.625 35.1172 62.9277 34.8184 62.3926 34.2207C61.8613 33.623 61.5957 32.832 61.5957 31.8477V31.7715ZM62.6855 31.9004C62.6855 32.6035 62.8477 33.168 63.1719 33.5938C63.5 34.0195 63.9375 34.2324 64.4844 34.2324C65.0352 34.2324 65.4727 34.0176 65.7969 33.5879C66.1211 33.1543 66.2832 32.5488 66.2832 31.7715C66.2832 31.0762 66.1172 30.5137 65.7852 30.084C65.457 29.6504 65.0195 29.4336 64.4727 29.4336C63.9375 29.4336 63.5059 29.6465 63.1777 30.0723C62.8496 30.498 62.6855 31.1074 62.6855 31.9004ZM71.791 29.6328C71.627 29.6055 71.4492 29.5918 71.2578 29.5918C70.5469 29.5918 70.0645 29.8945 69.8105 30.5V35H68.7266V28.6602H69.7812L69.7988 29.3926C70.1543 28.8262 70.6582 28.543 71.3105 28.543C71.5215 28.543 71.6816 28.5703 71.791 28.625V29.6328ZM73.8125 28.6602L73.8418 29.3633C74.3066 28.8164 74.9336 28.543 75.7227 28.543C76.6094 28.543 77.2129 28.8828 77.5332 29.5625C77.7441 29.2578 78.0176 29.0117 78.3535 28.8242C78.6934 28.6367 79.0938 28.543 79.5547 28.543C80.9453 28.543 81.6523 29.2793 81.6758 30.752V35H80.5918V30.8164C80.5918 30.3633 80.4883 30.0254 80.2812 29.8027C80.0742 29.5762 79.7266 29.4629 79.2383 29.4629C78.8359 29.4629 78.502 29.584 78.2363 29.8262C77.9707 30.0645 77.8164 30.3867 77.7734 30.793V35H76.6836V30.8457C76.6836 29.9238 76.2324 29.4629 75.3301 29.4629C74.6191 29.4629 74.1328 29.7656 73.8711 30.3711V35H72.7871V28.6602H73.8125ZM87.2305 35C87.168 34.875 87.1172 34.6523 87.0781 34.332C86.5742 34.8555 85.9727 35.1172 85.2734 35.1172C84.6484 35.1172 84.1348 34.9414 83.7324 34.5898C83.334 34.2344 83.1348 33.7852 83.1348 33.2422C83.1348 32.582 83.3848 32.0703 83.8848 31.707C84.3887 31.3398 85.0957 31.1562 86.0059 31.1562H87.0605V30.6582C87.0605 30.2793 86.9473 29.9785 86.7207 29.7559C86.4941 29.5293 86.1602 29.416 85.7188 29.416C85.332 29.416 85.0078 29.5137 84.7461 29.709C84.4844 29.9043 84.3535 30.1406 84.3535 30.418H83.2637C83.2637 30.1016 83.375 29.7969 83.5977 29.5039C83.8242 29.207 84.1289 28.9727 84.5117 28.8008C84.8984 28.6289 85.3223 28.543 85.7832 28.543C86.5137 28.543 87.0859 28.7266 87.5 29.0938C87.9141 29.457 88.1289 29.959 88.1445 30.5996V33.5176C88.1445 34.0996 88.2188 34.5625 88.3672 34.9062V35H87.2305ZM85.4316 34.1738C85.7715 34.1738 86.0938 34.0859 86.3984 33.9102C86.7031 33.7344 86.9238 33.5059 87.0605 33.2246V31.9238H86.2109C84.8828 31.9238 84.2188 32.3125 84.2188 33.0898C84.2188 33.4297 84.332 33.6953 84.5586 33.8867C84.7852 34.0781 85.0762 34.1738 85.4316 34.1738ZM92.3867 34.2324C92.7734 34.2324 93.1113 34.1152 93.4004 33.8809C93.6895 33.6465 93.8496 33.3535 93.8809 33.002H94.9062C94.8867 33.3652 94.7617 33.7109 94.5312 34.0391C94.3008 34.3672 93.9922 34.6289 93.6055 34.8242C93.2227 35.0195 92.8164 35.1172 92.3867 35.1172C91.5234 35.1172 90.8359 34.8301 90.3242 34.2559C89.8164 33.6777 89.5625 32.8887 89.5625 31.8887V31.707C89.5625 31.0898 89.6758 30.541 89.9023 30.0605C90.1289 29.5801 90.4531 29.207 90.875 28.9414C91.3008 28.6758 91.8027 28.543 92.3809 28.543C93.0918 28.543 93.6816 28.7559 94.1504 29.1816C94.623 29.6074 94.875 30.1602 94.9062 30.8398H93.8809C93.8496 30.4297 93.6934 30.0938 93.4121 29.832C93.1348 29.5664 92.791 29.4336 92.3809 29.4336C91.8301 29.4336 91.4023 29.6328 91.0977 30.0312C90.7969 30.4258 90.6465 30.998 90.6465 31.748V31.9531C90.6465 32.6836 90.7969 33.2461 91.0977 33.6406C91.3984 34.0352 91.8281 34.2324 92.3867 34.2324ZM92.5625 35.0527L92.4922 35.3574C93.0898 35.4629 93.3887 35.8008 93.3887 36.3711C93.3887 36.75 93.2324 37.0488 92.9199 37.2676C92.6074 37.4902 92.1719 37.6016 91.6133 37.6016L91.5723 36.9746C91.8809 36.9746 92.1191 36.9238 92.2871 36.8223C92.459 36.7207 92.5449 36.5781 92.5449 36.3945C92.5449 36.2227 92.4824 36.0957 92.3574 36.0137C92.2324 35.9316 91.9785 35.873 91.5957 35.8379L91.7832 35.0527H92.5625ZM100.039 35C99.9766 34.875 99.9258 34.6523 99.8867 34.332C99.3828 34.8555 98.7812 35.1172 98.082 35.1172C97.457 35.1172 96.9434 34.9414 96.541 34.5898C96.1426 34.2344 95.9434 33.7852 95.9434 33.2422C95.9434 32.582 96.1934 32.0703 96.6934 31.707C97.1973 31.3398 97.9043 31.1562 98.8145 31.1562H99.8691V30.6582C99.8691 30.2793 99.7559 29.9785 99.5293 29.7559C99.3027 29.5293 98.9688 29.416 98.5273 29.416C98.1406 29.416 97.8164 29.5137 97.5547 29.709C97.293 29.9043 97.1621 30.1406 97.1621 30.418H96.0723C96.0723 30.1016 96.1836 29.7969 96.4062 29.5039C96.6328 29.207 96.9375 28.9727 97.3203 28.8008C97.707 28.6289 98.1309 28.543 98.5918 28.543C99.3223 28.543 99.8945 28.7266 100.309 29.0938C100.723 29.457 100.938 29.959 100.953 30.5996V33.5176C100.953 34.0996 101.027 34.5625 101.176 34.9062V35H100.039ZM98.2402 34.1738C98.5801 34.1738 98.9023 34.0859 99.207 33.9102C99.5117 33.7344 99.7324 33.5059 99.8691 33.2246V31.9238H99.0195C97.6914 31.9238 97.0273 32.3125 97.0273 33.0898C97.0273 33.4297 97.1406 33.6953 97.3672 33.8867C97.5938 34.0781 97.8848 34.1738 98.2402 34.1738ZM100.789 26.1875C100.789 26.6094 100.668 26.9512 100.426 27.2129C100.188 27.4746 99.8887 27.6055 99.5293 27.6055C99.3691 27.6055 99.2305 27.5859 99.1133 27.5469C98.9961 27.5078 98.8418 27.4277 98.6504 27.3066C98.4629 27.1855 98.3262 27.1133 98.2402 27.0898C98.1582 27.0625 98.0625 27.0488 97.9531 27.0488C97.793 27.0488 97.6562 27.1113 97.543 27.2363C97.4297 27.3574 97.373 27.5137 97.373 27.7051L96.6465 27.6641C96.6465 27.2461 96.7637 26.9004 96.998 26.627C97.2363 26.3535 97.5371 26.2168 97.9004 26.2168C98.0371 26.2168 98.1602 26.2363 98.2695 26.2754C98.3789 26.3145 98.5273 26.3906 98.7148 26.5039C98.9023 26.6172 99.0449 26.6914 99.1426 26.7266C99.2441 26.7617 99.3555 26.7793 99.4766 26.7793C99.6445 26.7793 99.7832 26.7129 99.8926 26.5801C100.006 26.4473 100.062 26.293 100.062 26.1172L100.789 26.1875ZM102.365 31.7715C102.365 31.1504 102.486 30.5918 102.729 30.0957C102.975 29.5996 103.314 29.2168 103.748 28.9473C104.186 28.6777 104.684 28.543 105.242 28.543C106.105 28.543 106.803 28.8418 107.334 29.4395C107.869 30.0371 108.137 30.832 108.137 31.8242V31.9004C108.137 32.5176 108.018 33.0723 107.779 33.5645C107.545 34.0527 107.207 34.4336 106.766 34.707C106.328 34.9805 105.824 35.1172 105.254 35.1172C104.395 35.1172 103.697 34.8184 103.162 34.2207C102.631 33.623 102.365 32.832 102.365 31.8477V31.7715ZM103.455 31.9004C103.455 32.6035 103.617 33.168 103.941 33.5938C104.27 34.0195 104.707 34.2324 105.254 34.2324C105.805 34.2324 106.242 34.0176 106.566 33.5879C106.891 33.1543 107.053 32.5488 107.053 31.7715C107.053 31.0762 106.887 30.5137 106.555 30.084C106.227 29.6504 105.789 29.4336 105.242 29.4336C104.707 29.4336 104.275 29.6465 103.947 30.0723C103.619 30.498 103.455 31.1074 103.455 31.9004Z" fill="white"/>
</svg>
